<svg xmlns="http://www.w3.org/2000/svg" viewBox="0 0 100 100">
  <defs>
    <linearGradient id="bg" x1="0%" y1="0%" x2="100%" y2="100%">
      <stop offset="0%" style="stop-color:#1a1a2e"/>
      <stop offset="100%" style="stop-color:#0a0a0a"/>
    </linearGradient>
  </defs>
  <rect width="100" height="100" rx="15" fill="url(#bg)"/>
  <!-- T piece -->
  <rect x="35" y="15" width="12" height="12" fill="#800080" stroke="#a020a0" stroke-width="1"/>
  <rect x="23" y="27" width="12" height="12" fill="#800080" stroke="#a020a0" stroke-width="1"/>
  <rect x="35" y="27" width="12" height="12" fill="#800080" stroke="#a020a0" stroke-width="1"/>
  <rect x="47" y="27" width="12" height="12" fill="#800080" stroke="#a020a0" stroke-width="1"/>
  <!-- L piece -->
  <rect x="65" y="20" width="12" height="12" fill="#ff8000" stroke="#ffa040" stroke-width="1"/>
  <rect x="65" y="32" width="12" height="12" fill="#ff8000" stroke="#ffa040" stroke-width="1"/>
  <rect x="65" y="44" width="12" height="12" fill="#ff8000" stroke="#ffa040" stroke-width="1"/>
  <rect x="77" y="44" width="12" height="12" fill="#ff8000" stroke="#ffa040" stroke-width="1"/>
  <!-- I piece -->
  <rect x="15" y="50" width="12" height="12" fill="#00ffff" stroke="#40ffff" stroke-width="1"/>
  <rect x="15" y="62" width="12" height="12" fill="#00ffff" stroke="#40ffff" stroke-width="1"/>
  <rect x="15" y="74" width="12" height="12" fill="#00ffff" stroke="#40ffff" stroke-width="1"/>
  <rect x="15" y="86" width="12" height="12" fill="#00ffff" stroke="#40ffff" stroke-width="1"/>
  <!-- Z piece -->
  <rect x="35" y="55" width="12" height="12" fill="#ff0000" stroke="#ff4040" stroke-width="1"/>
  <rect x="47" y="55" width="12" height="12" fill="#ff0000" stroke="#ff4040" stroke-width="1"/>
  <rect x="47" y="67" width="12" height="12" fill="#ff0000" stroke="#ff4040" stroke-width="1"/>
  <rect x="59" y="67" width="12" height="12" fill="#ff0000" stroke="#ff4040" stroke-width="1"/>
  <!-- O piece -->
  <rect x="75" y="70" width="12" height="12" fill="#ffff00" stroke="#ffff40" stroke-width="1"/>
  <rect x="87" y="70" width="12" height="12" fill="#ffff00" stroke="#ffff40" stroke-width="1"/>
  <rect x="75" y="82" width="12" height="12" fill="#ffff00" stroke="#ffff40" stroke-width="1"/>
  <rect x="87" y="82" width="12" height="12" fill="#ffff00" stroke="#ffff40" stroke-width="1"/>
</svg>
